<mxfile host="Electron" modified="2024-10-10T15:18:28.097Z" agent="Mozilla/5.0 (Windows NT 10.0; Win64; x64) AppleWebKit/537.36 (KHTML, like Gecko) draw.io/24.2.5 Chrome/120.0.6099.109 Electron/28.1.0 Safari/537.36" etag="IsxUHUmyXYDREubhFlGc" version="24.2.5" type="device">
  <diagram name="Задание 5. Service Discovery и балансировка с API Gateway" id="KWE8-HjRpRNbmHuJE9ap">
    <mxGraphModel dx="2074" dy="36" grid="1" gridSize="10" guides="1" tooltips="1" connect="1" arrows="1" fold="1" page="1" pageScale="1" pageWidth="827" pageHeight="1169" math="0" shadow="0">
      <root>
        <mxCell id="0" />
        <mxCell id="1" parent="0" />
        <mxCell id="TSQBkJ3ogUV4XWMJtMO1-18" style="edgeStyle=orthogonalEdgeStyle;rounded=0;orthogonalLoop=1;jettySize=auto;html=1;exitX=0;exitY=0.5;exitDx=0;exitDy=0;entryX=0.161;entryY=1.006;entryDx=0;entryDy=0;entryPerimeter=0;fillColor=#008a00;strokeColor=#005700;dashed=1;" edge="1" parent="1" source="TSQBkJ3ogUV4XWMJtMO1-12" target="VoNTCJjImDjjWkGCbd1Q-83">
          <mxGeometry relative="1" as="geometry" />
        </mxCell>
        <mxCell id="PmUecQSYKrMx3VrciUSt-37" style="edgeStyle=orthogonalEdgeStyle;rounded=0;orthogonalLoop=1;jettySize=auto;html=1;exitX=0;exitY=0.5;exitDx=0;exitDy=0;entryX=0.75;entryY=1;entryDx=0;entryDy=0;fillColor=#008a00;strokeColor=#005700;dashed=1;" parent="1" source="PmUecQSYKrMx3VrciUSt-27" target="VoNTCJjImDjjWkGCbd1Q-83" edge="1">
          <mxGeometry relative="1" as="geometry" />
        </mxCell>
        <mxCell id="VoNTCJjImDjjWkGCbd1Q-83" value="consul" style="rounded=1;whiteSpace=wrap;html=1;fillColor=#cdeb8b;strokeColor=#36393d;" parent="1" vertex="1">
          <mxGeometry x="358" y="1420" width="120" height="60" as="geometry" />
        </mxCell>
        <mxCell id="VoNTCJjImDjjWkGCbd1Q-88" style="edgeStyle=orthogonalEdgeStyle;rounded=0;orthogonalLoop=1;jettySize=auto;html=1;exitX=0.5;exitY=0;exitDx=0;exitDy=0;entryX=1;entryY=0.5;entryDx=0;entryDy=0;startArrow=classic;startFill=1;endArrow=none;endFill=0;" parent="1" source="VoNTCJjImDjjWkGCbd1Q-84" target="VoNTCJjImDjjWkGCbd1Q-86" edge="1">
          <mxGeometry relative="1" as="geometry" />
        </mxCell>
        <mxCell id="PmUecQSYKrMx3VrciUSt-29" style="edgeStyle=orthogonalEdgeStyle;rounded=0;orthogonalLoop=1;jettySize=auto;html=1;exitX=0.5;exitY=1;exitDx=0;exitDy=0;entryX=0.5;entryY=0;entryDx=0;entryDy=0;" parent="1" source="VoNTCJjImDjjWkGCbd1Q-84" target="PmUecQSYKrMx3VrciUSt-26" edge="1">
          <mxGeometry relative="1" as="geometry" />
        </mxCell>
        <mxCell id="PmUecQSYKrMx3VrciUSt-30" style="edgeStyle=orthogonalEdgeStyle;rounded=0;orthogonalLoop=1;jettySize=auto;html=1;exitX=0.5;exitY=1;exitDx=0;exitDy=0;entryX=0.5;entryY=0;entryDx=0;entryDy=0;" parent="1" source="VoNTCJjImDjjWkGCbd1Q-84" target="PmUecQSYKrMx3VrciUSt-27" edge="1">
          <mxGeometry relative="1" as="geometry" />
        </mxCell>
        <mxCell id="TSQBkJ3ogUV4XWMJtMO1-13" style="edgeStyle=orthogonalEdgeStyle;rounded=0;orthogonalLoop=1;jettySize=auto;html=1;exitX=0.5;exitY=1;exitDx=0;exitDy=0;entryX=0.5;entryY=0;entryDx=0;entryDy=0;" edge="1" parent="1" source="VoNTCJjImDjjWkGCbd1Q-84" target="TSQBkJ3ogUV4XWMJtMO1-12">
          <mxGeometry relative="1" as="geometry" />
        </mxCell>
        <mxCell id="VoNTCJjImDjjWkGCbd1Q-84" value="&lt;span style=&quot;font-family: &amp;quot;YS Text&amp;quot;, Arial, Helvetica, sans-serif; font-size: 18px; text-align: start; white-space-collapse: preserve;&quot;&gt;APISIX Gateway&lt;/span&gt;" style="rounded=1;whiteSpace=wrap;html=1;fillColor=#ffcccc;strokeColor=#36393d;" parent="1" vertex="1">
          <mxGeometry x="780.5" y="1395" width="130" height="110" as="geometry" />
        </mxCell>
        <mxCell id="VoNTCJjImDjjWkGCbd1Q-93" style="edgeStyle=orthogonalEdgeStyle;rounded=0;orthogonalLoop=1;jettySize=auto;html=1;exitX=0;exitY=0.5;exitDx=0;exitDy=0;entryX=1;entryY=0.5;entryDx=0;entryDy=0;" parent="1" source="VoNTCJjImDjjWkGCbd1Q-85" target="VoNTCJjImDjjWkGCbd1Q-83" edge="1">
          <mxGeometry relative="1" as="geometry" />
        </mxCell>
        <mxCell id="VoNTCJjImDjjWkGCbd1Q-85" value="consul_kv" style="rounded=1;whiteSpace=wrap;html=1;fillColor=#ffcccc;strokeColor=#36393d;strokeWidth=2;" parent="1" vertex="1">
          <mxGeometry x="695.5" y="1430" width="100" height="40" as="geometry" />
        </mxCell>
        <mxCell id="VoNTCJjImDjjWkGCbd1Q-86" value="&lt;font style=&quot;font-size: 16px;&quot;&gt;&lt;b&gt;Сайт&lt;/b&gt;&lt;/font&gt;&lt;div style=&quot;font-size: 16px;&quot;&gt;&lt;font style=&quot;font-size: 16px;&quot;&gt;&lt;b&gt;React/NGINX&lt;/b&gt;&lt;/font&gt;&lt;/div&gt;" style="rounded=1;whiteSpace=wrap;html=1;fillColor=#fff2cc;strokeColor=#d6b656;" parent="1" vertex="1">
          <mxGeometry x="530" y="1280" width="120" height="60" as="geometry" />
        </mxCell>
        <mxCell id="VoNTCJjImDjjWkGCbd1Q-95" style="edgeStyle=orthogonalEdgeStyle;rounded=0;orthogonalLoop=1;jettySize=auto;html=1;exitX=0.5;exitY=0.5;exitDx=0;exitDy=0;exitPerimeter=0;entryX=0;entryY=0.5;entryDx=0;entryDy=0;" parent="1" source="VoNTCJjImDjjWkGCbd1Q-94" target="VoNTCJjImDjjWkGCbd1Q-86" edge="1">
          <mxGeometry relative="1" as="geometry" />
        </mxCell>
        <mxCell id="VoNTCJjImDjjWkGCbd1Q-94" value="Actor" style="shape=umlActor;verticalLabelPosition=bottom;verticalAlign=top;html=1;outlineConnect=0;" parent="1" vertex="1">
          <mxGeometry x="270" y="1270" width="40" height="80" as="geometry" />
        </mxCell>
        <mxCell id="PmUecQSYKrMx3VrciUSt-1" value="" style="rounded=1;whiteSpace=wrap;html=1;dashed=1;" parent="1" vertex="1">
          <mxGeometry x="90" y="1940" width="840" height="350" as="geometry" />
        </mxCell>
        <mxCell id="PmUecQSYKrMx3VrciUSt-2" value="" style="whiteSpace=wrap;html=1;aspect=fixed;" parent="1" vertex="1">
          <mxGeometry x="626" y="1991" width="269" height="269" as="geometry" />
        </mxCell>
        <mxCell id="PmUecQSYKrMx3VrciUSt-3" value="" style="whiteSpace=wrap;html=1;aspect=fixed;" parent="1" vertex="1">
          <mxGeometry x="120" y="1990" width="269" height="269" as="geometry" />
        </mxCell>
        <mxCell id="PmUecQSYKrMx3VrciUSt-4" style="edgeStyle=orthogonalEdgeStyle;rounded=0;orthogonalLoop=1;jettySize=auto;html=1;exitX=1;exitY=0.5;exitDx=0;exitDy=0;fillColor=#d80073;strokeColor=#A50040;" parent="1" source="PmUecQSYKrMx3VrciUSt-6" target="PmUecQSYKrMx3VrciUSt-7" edge="1">
          <mxGeometry relative="1" as="geometry" />
        </mxCell>
        <mxCell id="PmUecQSYKrMx3VrciUSt-5" style="edgeStyle=orthogonalEdgeStyle;rounded=0;orthogonalLoop=1;jettySize=auto;html=1;exitX=0.5;exitY=1;exitDx=0;exitDy=0;entryX=0.5;entryY=0;entryDx=0;entryDy=0;" parent="1" source="PmUecQSYKrMx3VrciUSt-6" target="PmUecQSYKrMx3VrciUSt-2" edge="1">
          <mxGeometry relative="1" as="geometry" />
        </mxCell>
        <mxCell id="PmUecQSYKrMx3VrciUSt-6" value="&lt;span style=&quot;color: rgba(0, 0, 0, 0.85); font-family: Menlo, &amp;quot;Ubuntu Mono&amp;quot;, consolas, source-code-pro, monospace; font-size: 14px; text-align: start; white-space: pre; background-color: rgb(245, 245, 245);&quot;&gt;mongos_router&lt;/span&gt;" style="rounded=1;whiteSpace=wrap;html=1;fillColor=#e1d5e7;strokeColor=#9673a6;" parent="1" vertex="1">
          <mxGeometry x="230" y="1710" width="120" height="60" as="geometry" />
        </mxCell>
        <mxCell id="PmUecQSYKrMx3VrciUSt-7" value="&lt;span style=&quot;color: rgba(0, 0, 0, 0.85); font-family: Menlo, &amp;quot;Ubuntu Mono&amp;quot;, consolas, source-code-pro, monospace; font-size: 14px; text-align: start; white-space: pre; background-color: rgb(245, 245, 245);&quot;&gt;configSrv&lt;/span&gt;" style="rounded=1;whiteSpace=wrap;html=1;fillColor=#e1d5e7;strokeColor=#9673a6;" parent="1" vertex="1">
          <mxGeometry x="980" y="1710" width="120" height="60" as="geometry" />
        </mxCell>
        <mxCell id="PmUecQSYKrMx3VrciUSt-8" value="&lt;br&gt;&lt;br style=&quot;forced-color-adjust: none; color: rgb(0, 0, 0); font-family: Helvetica; font-size: 12px; font-style: normal; font-variant-ligatures: normal; font-variant-caps: normal; font-weight: 400; letter-spacing: normal; orphans: 2; text-align: center; text-indent: 0px; text-transform: none; widows: 2; word-spacing: 0px; -webkit-text-stroke-width: 0px; white-space: normal; background-color: rgb(251, 251, 251); text-decoration-thickness: initial; text-decoration-style: initial; text-decoration-color: initial;&quot;&gt;&lt;span style=&quot;forced-color-adjust: none; color: rgb(0, 0, 0); font-family: Helvetica; font-size: 12px; font-style: normal; font-variant-ligatures: normal; font-variant-caps: normal; font-weight: 400; letter-spacing: normal; orphans: 2; text-align: center; text-indent: 0px; text-transform: none; widows: 2; word-spacing: 0px; -webkit-text-stroke-width: 0px; white-space: normal; text-decoration-thickness: initial; text-decoration-style: initial; text-decoration-color: initial; background-color: rgb(251, 251, 251); float: none; display: inline !important;&quot;&gt;MongoDB&amp;nbsp;&lt;span style=&quot;background-color: rgb(245, 245, 245); color: rgba(0, 0, 0, 0.85); font-family: Menlo, &amp;quot;Ubuntu Mono&amp;quot;, consolas, source-code-pro, monospace; font-size: 14px; text-align: start; white-space: pre;&quot;&gt;shard1&lt;/span&gt;&lt;br&gt;&lt;/span&gt;&lt;br style=&quot;forced-color-adjust: none; color: rgb(0, 0, 0); font-family: Helvetica; font-size: 12px; font-style: normal; font-variant-ligatures: normal; font-variant-caps: normal; font-weight: 400; letter-spacing: normal; orphans: 2; text-align: center; text-indent: 0px; text-transform: none; widows: 2; word-spacing: 0px; -webkit-text-stroke-width: 0px; white-space: normal; background-color: rgb(251, 251, 251); text-decoration-thickness: initial; text-decoration-style: initial; text-decoration-color: initial;&quot;&gt;&lt;div&gt;&lt;br/&gt;&lt;/div&gt;" style="text;html=1;align=center;verticalAlign=middle;whiteSpace=wrap;rounded=0;" parent="1" vertex="1">
          <mxGeometry x="150" y="1990" width="60" height="30" as="geometry" />
        </mxCell>
        <mxCell id="PmUecQSYKrMx3VrciUSt-9" style="edgeStyle=orthogonalEdgeStyle;rounded=0;orthogonalLoop=1;jettySize=auto;html=1;exitX=0.855;exitY=1;exitDx=0;exitDy=-4.35;exitPerimeter=0;" parent="1" source="PmUecQSYKrMx3VrciUSt-11" target="PmUecQSYKrMx3VrciUSt-12" edge="1">
          <mxGeometry relative="1" as="geometry" />
        </mxCell>
        <mxCell id="PmUecQSYKrMx3VrciUSt-10" value="Replica" style="edgeLabel;html=1;align=center;verticalAlign=middle;resizable=0;points=[];" parent="PmUecQSYKrMx3VrciUSt-9" vertex="1" connectable="0">
          <mxGeometry x="-0.2628" relative="1" as="geometry">
            <mxPoint as="offset" />
          </mxGeometry>
        </mxCell>
        <mxCell id="PmUecQSYKrMx3VrciUSt-11" value="MongoDB&lt;div style=&quot;text-align: start;&quot;&gt;&lt;font face=&quot;Menlo, Ubuntu Mono, consolas, source-code-pro, monospace&quot; color=&quot;rgba(0, 0, 0, 0.85)&quot;&gt;&lt;span style=&quot;font-size: 14px; white-space: pre; background-color: rgb(245, 245, 245);&quot;&gt;master&lt;/span&gt;&lt;/font&gt;&lt;/div&gt;" style="shape=cylinder3;whiteSpace=wrap;html=1;boundedLbl=1;backgroundOutline=1;size=15;fillColor=#fff2cc;strokeColor=#d6b656;" parent="1" vertex="1">
          <mxGeometry x="224.5" y="2030" width="60" height="80" as="geometry" />
        </mxCell>
        <mxCell id="PmUecQSYKrMx3VrciUSt-12" value="MongoDB&lt;div style=&quot;text-align: start;&quot;&gt;&lt;font face=&quot;Menlo, Ubuntu Mono, consolas, source-code-pro, monospace&quot; color=&quot;rgba(0, 0, 0, 0.85)&quot;&gt;&lt;span style=&quot;font-size: 14px; white-space: pre; background-color: rgb(245, 245, 245);&quot;&gt;slave&lt;/span&gt;&lt;/font&gt;&lt;/div&gt;" style="shape=cylinder3;whiteSpace=wrap;html=1;boundedLbl=1;backgroundOutline=1;size=15;fillColor=#fff2cc;strokeColor=#d6b656;" parent="1" vertex="1">
          <mxGeometry x="317" y="2130" width="60" height="80" as="geometry" />
        </mxCell>
        <mxCell id="PmUecQSYKrMx3VrciUSt-13" value="MongoDB&lt;div style=&quot;text-align: start;&quot;&gt;&lt;font face=&quot;Menlo, Ubuntu Mono, consolas, source-code-pro, monospace&quot; color=&quot;rgba(0, 0, 0, 0.85)&quot;&gt;&lt;span style=&quot;font-size: 14px; white-space: pre; background-color: rgb(245, 245, 245);&quot;&gt;slave&lt;/span&gt;&lt;/font&gt;&lt;/div&gt;" style="shape=cylinder3;whiteSpace=wrap;html=1;boundedLbl=1;backgroundOutline=1;size=15;fillColor=#fff2cc;strokeColor=#d6b656;" parent="1" vertex="1">
          <mxGeometry x="132" y="2130" width="60" height="80" as="geometry" />
        </mxCell>
        <mxCell id="PmUecQSYKrMx3VrciUSt-14" style="edgeStyle=orthogonalEdgeStyle;rounded=0;orthogonalLoop=1;jettySize=auto;html=1;exitX=0.145;exitY=1;exitDx=0;exitDy=-4.35;exitPerimeter=0;entryX=0.5;entryY=0;entryDx=0;entryDy=0;entryPerimeter=0;" parent="1" source="PmUecQSYKrMx3VrciUSt-11" target="PmUecQSYKrMx3VrciUSt-13" edge="1">
          <mxGeometry relative="1" as="geometry" />
        </mxCell>
        <mxCell id="PmUecQSYKrMx3VrciUSt-15" value="Replica" style="edgeLabel;html=1;align=center;verticalAlign=middle;resizable=0;points=[];" parent="PmUecQSYKrMx3VrciUSt-14" vertex="1" connectable="0">
          <mxGeometry x="-0.1791" relative="1" as="geometry">
            <mxPoint as="offset" />
          </mxGeometry>
        </mxCell>
        <mxCell id="PmUecQSYKrMx3VrciUSt-16" value="&lt;br&gt;&lt;br style=&quot;forced-color-adjust: none; color: rgb(0, 0, 0); font-family: Helvetica; font-size: 12px; font-style: normal; font-variant-ligatures: normal; font-variant-caps: normal; font-weight: 400; letter-spacing: normal; orphans: 2; text-align: center; text-indent: 0px; text-transform: none; widows: 2; word-spacing: 0px; -webkit-text-stroke-width: 0px; white-space: normal; background-color: rgb(251, 251, 251); text-decoration-thickness: initial; text-decoration-style: initial; text-decoration-color: initial;&quot;&gt;&lt;span style=&quot;forced-color-adjust: none; color: rgb(0, 0, 0); font-family: Helvetica; font-size: 12px; font-style: normal; font-variant-ligatures: normal; font-variant-caps: normal; font-weight: 400; letter-spacing: normal; orphans: 2; text-align: center; text-indent: 0px; text-transform: none; widows: 2; word-spacing: 0px; -webkit-text-stroke-width: 0px; white-space: normal; text-decoration-thickness: initial; text-decoration-style: initial; text-decoration-color: initial; background-color: rgb(251, 251, 251); float: none; display: inline !important;&quot;&gt;MongoDB&amp;nbsp;&lt;span style=&quot;background-color: rgb(245, 245, 245); color: rgba(0, 0, 0, 0.85); font-family: Menlo, &amp;quot;Ubuntu Mono&amp;quot;, consolas, source-code-pro, monospace; font-size: 14px; text-align: start; white-space: pre;&quot;&gt;shard2&lt;/span&gt;&lt;br&gt;&lt;/span&gt;&lt;br style=&quot;forced-color-adjust: none; color: rgb(0, 0, 0); font-family: Helvetica; font-size: 12px; font-style: normal; font-variant-ligatures: normal; font-variant-caps: normal; font-weight: 400; letter-spacing: normal; orphans: 2; text-align: center; text-indent: 0px; text-transform: none; widows: 2; word-spacing: 0px; -webkit-text-stroke-width: 0px; white-space: normal; background-color: rgb(251, 251, 251); text-decoration-thickness: initial; text-decoration-style: initial; text-decoration-color: initial;&quot;&gt;&lt;div&gt;&lt;br&gt;&lt;/div&gt;" style="text;html=1;align=center;verticalAlign=middle;whiteSpace=wrap;rounded=0;" parent="1" vertex="1">
          <mxGeometry x="656" y="1991" width="60" height="30" as="geometry" />
        </mxCell>
        <mxCell id="PmUecQSYKrMx3VrciUSt-17" style="edgeStyle=orthogonalEdgeStyle;rounded=0;orthogonalLoop=1;jettySize=auto;html=1;exitX=0.855;exitY=1;exitDx=0;exitDy=-4.35;exitPerimeter=0;" parent="1" source="PmUecQSYKrMx3VrciUSt-19" target="PmUecQSYKrMx3VrciUSt-20" edge="1">
          <mxGeometry relative="1" as="geometry" />
        </mxCell>
        <mxCell id="PmUecQSYKrMx3VrciUSt-18" value="Replica" style="edgeLabel;html=1;align=center;verticalAlign=middle;resizable=0;points=[];" parent="PmUecQSYKrMx3VrciUSt-17" vertex="1" connectable="0">
          <mxGeometry x="-0.1162" relative="1" as="geometry">
            <mxPoint as="offset" />
          </mxGeometry>
        </mxCell>
        <mxCell id="PmUecQSYKrMx3VrciUSt-19" value="MongoDB&lt;div style=&quot;text-align: start;&quot;&gt;&lt;font face=&quot;Menlo, Ubuntu Mono, consolas, source-code-pro, monospace&quot; color=&quot;rgba(0, 0, 0, 0.85)&quot;&gt;&lt;span style=&quot;font-size: 14px; white-space: pre; background-color: rgb(245, 245, 245);&quot;&gt;master&lt;/span&gt;&lt;/font&gt;&lt;/div&gt;" style="shape=cylinder3;whiteSpace=wrap;html=1;boundedLbl=1;backgroundOutline=1;size=15;fillColor=#fff2cc;strokeColor=#d6b656;" parent="1" vertex="1">
          <mxGeometry x="730.5" y="2031" width="60" height="80" as="geometry" />
        </mxCell>
        <mxCell id="PmUecQSYKrMx3VrciUSt-20" value="MongoDB&lt;div style=&quot;text-align: start;&quot;&gt;&lt;font face=&quot;Menlo, Ubuntu Mono, consolas, source-code-pro, monospace&quot; color=&quot;rgba(0, 0, 0, 0.85)&quot;&gt;&lt;span style=&quot;font-size: 14px; white-space: pre; background-color: rgb(245, 245, 245);&quot;&gt;slave&lt;/span&gt;&lt;/font&gt;&lt;/div&gt;" style="shape=cylinder3;whiteSpace=wrap;html=1;boundedLbl=1;backgroundOutline=1;size=15;fillColor=#fff2cc;strokeColor=#d6b656;" parent="1" vertex="1">
          <mxGeometry x="823" y="2131" width="60" height="80" as="geometry" />
        </mxCell>
        <mxCell id="PmUecQSYKrMx3VrciUSt-21" value="MongoDB&lt;div style=&quot;text-align: start;&quot;&gt;&lt;font face=&quot;Menlo, Ubuntu Mono, consolas, source-code-pro, monospace&quot; color=&quot;rgba(0, 0, 0, 0.85)&quot;&gt;&lt;span style=&quot;font-size: 14px; white-space: pre; background-color: rgb(245, 245, 245);&quot;&gt;slave&lt;/span&gt;&lt;/font&gt;&lt;/div&gt;" style="shape=cylinder3;whiteSpace=wrap;html=1;boundedLbl=1;backgroundOutline=1;size=15;fillColor=#fff2cc;strokeColor=#d6b656;" parent="1" vertex="1">
          <mxGeometry x="638" y="2131" width="60" height="80" as="geometry" />
        </mxCell>
        <mxCell id="PmUecQSYKrMx3VrciUSt-22" style="edgeStyle=orthogonalEdgeStyle;rounded=0;orthogonalLoop=1;jettySize=auto;html=1;exitX=0.145;exitY=1;exitDx=0;exitDy=-4.35;exitPerimeter=0;entryX=0.5;entryY=0;entryDx=0;entryDy=0;entryPerimeter=0;" parent="1" source="PmUecQSYKrMx3VrciUSt-19" target="PmUecQSYKrMx3VrciUSt-21" edge="1">
          <mxGeometry relative="1" as="geometry" />
        </mxCell>
        <mxCell id="PmUecQSYKrMx3VrciUSt-23" value="Replica" style="edgeLabel;html=1;align=center;verticalAlign=middle;resizable=0;points=[];" parent="PmUecQSYKrMx3VrciUSt-22" vertex="1" connectable="0">
          <mxGeometry x="-0.1372" y="1" relative="1" as="geometry">
            <mxPoint as="offset" />
          </mxGeometry>
        </mxCell>
        <mxCell id="PmUecQSYKrMx3VrciUSt-24" style="edgeStyle=orthogonalEdgeStyle;rounded=0;orthogonalLoop=1;jettySize=auto;html=1;exitX=0.5;exitY=1;exitDx=0;exitDy=0;entryX=0.466;entryY=0.002;entryDx=0;entryDy=0;entryPerimeter=0;" parent="1" source="PmUecQSYKrMx3VrciUSt-6" target="PmUecQSYKrMx3VrciUSt-3" edge="1">
          <mxGeometry relative="1" as="geometry" />
        </mxCell>
        <mxCell id="PmUecQSYKrMx3VrciUSt-25" style="edgeStyle=orthogonalEdgeStyle;rounded=0;orthogonalLoop=1;jettySize=auto;html=1;exitX=1;exitY=0.457;exitDx=0;exitDy=0;fillColor=#d80073;strokeColor=#A50040;exitPerimeter=0;entryX=0.5;entryY=1;entryDx=0;entryDy=0;" parent="1" source="PmUecQSYKrMx3VrciUSt-1" target="PmUecQSYKrMx3VrciUSt-7" edge="1">
          <mxGeometry relative="1" as="geometry">
            <mxPoint x="956" y="2100" as="sourcePoint" />
            <mxPoint x="1586" y="2100" as="targetPoint" />
          </mxGeometry>
        </mxCell>
        <mxCell id="PmUecQSYKrMx3VrciUSt-31" style="edgeStyle=orthogonalEdgeStyle;rounded=0;orthogonalLoop=1;jettySize=auto;html=1;exitX=0.5;exitY=1;exitDx=0;exitDy=0;entryX=0.5;entryY=0;entryDx=0;entryDy=0;" parent="1" source="PmUecQSYKrMx3VrciUSt-26" target="PmUecQSYKrMx3VrciUSt-6" edge="1">
          <mxGeometry relative="1" as="geometry">
            <Array as="points">
              <mxPoint x="660" y="1680" />
              <mxPoint x="290" y="1680" />
            </Array>
          </mxGeometry>
        </mxCell>
        <mxCell id="PmUecQSYKrMx3VrciUSt-36" style="edgeStyle=orthogonalEdgeStyle;rounded=0;orthogonalLoop=1;jettySize=auto;html=1;exitX=0;exitY=0.5;exitDx=0;exitDy=0;entryX=0.5;entryY=1;entryDx=0;entryDy=0;fillColor=#60a917;strokeColor=#2D7600;dashed=1;" parent="1" source="PmUecQSYKrMx3VrciUSt-26" target="VoNTCJjImDjjWkGCbd1Q-83" edge="1">
          <mxGeometry relative="1" as="geometry" />
        </mxCell>
        <mxCell id="PmUecQSYKrMx3VrciUSt-40" value="registration" style="edgeLabel;html=1;align=center;verticalAlign=middle;resizable=0;points=[];" parent="PmUecQSYKrMx3VrciUSt-36" vertex="1" connectable="0">
          <mxGeometry x="-0.3425" y="-1" relative="1" as="geometry">
            <mxPoint as="offset" />
          </mxGeometry>
        </mxCell>
        <mxCell id="PmUecQSYKrMx3VrciUSt-26" value="pymongo-api" style="rounded=1;whiteSpace=wrap;html=1;" parent="1" vertex="1">
          <mxGeometry x="600" y="1560" width="120" height="60" as="geometry" />
        </mxCell>
        <mxCell id="PmUecQSYKrMx3VrciUSt-32" style="edgeStyle=orthogonalEdgeStyle;rounded=0;orthogonalLoop=1;jettySize=auto;html=1;exitX=0.5;exitY=1;exitDx=0;exitDy=0;entryX=0.5;entryY=0;entryDx=0;entryDy=0;" parent="1" source="PmUecQSYKrMx3VrciUSt-27" target="PmUecQSYKrMx3VrciUSt-6" edge="1">
          <mxGeometry relative="1" as="geometry">
            <Array as="points">
              <mxPoint x="900" y="1680" />
              <mxPoint x="290" y="1680" />
            </Array>
          </mxGeometry>
        </mxCell>
        <mxCell id="PmUecQSYKrMx3VrciUSt-39" value="db" style="edgeLabel;html=1;align=center;verticalAlign=middle;resizable=0;points=[];" parent="PmUecQSYKrMx3VrciUSt-32" vertex="1" connectable="0">
          <mxGeometry x="0.0686" relative="1" as="geometry">
            <mxPoint as="offset" />
          </mxGeometry>
        </mxCell>
        <mxCell id="PmUecQSYKrMx3VrciUSt-27" value="pymongo-api" style="rounded=1;whiteSpace=wrap;html=1;" parent="1" vertex="1">
          <mxGeometry x="840" y="1560" width="120" height="60" as="geometry" />
        </mxCell>
        <mxCell id="PmUecQSYKrMx3VrciUSt-33" style="edgeStyle=orthogonalEdgeStyle;rounded=0;orthogonalLoop=1;jettySize=auto;html=1;entryX=0.855;entryY=0;entryDx=0;entryDy=4.35;entryPerimeter=0;fillColor=#1ba1e2;strokeColor=#006EAF;" parent="1" edge="1">
          <mxGeometry relative="1" as="geometry">
            <mxPoint x="920" y="1620" as="sourcePoint" />
            <Array as="points">
              <mxPoint x="920" y="1650" />
              <mxPoint x="1281" y="1650" />
            </Array>
            <mxPoint x="1281.3000000000002" y="1704.35" as="targetPoint" />
          </mxGeometry>
        </mxCell>
        <mxCell id="PmUecQSYKrMx3VrciUSt-34" style="edgeStyle=orthogonalEdgeStyle;rounded=0;orthogonalLoop=1;jettySize=auto;html=1;entryX=0.145;entryY=0;entryDx=0;entryDy=4.35;entryPerimeter=0;fillColor=#1ba1e2;strokeColor=#006EAF;" parent="1" edge="1">
          <mxGeometry relative="1" as="geometry">
            <mxPoint x="680" y="1620" as="sourcePoint" />
            <Array as="points">
              <mxPoint x="680" y="1620" />
              <mxPoint x="680" y="1650" />
              <mxPoint x="1239" y="1650" />
            </Array>
            <mxPoint x="1238.6999999999998" y="1704.35" as="targetPoint" />
          </mxGeometry>
        </mxCell>
        <mxCell id="PmUecQSYKrMx3VrciUSt-38" value="cach" style="edgeLabel;html=1;align=center;verticalAlign=middle;resizable=0;points=[];" parent="PmUecQSYKrMx3VrciUSt-34" vertex="1" connectable="0">
          <mxGeometry x="0.3405" y="-2" relative="1" as="geometry">
            <mxPoint as="offset" />
          </mxGeometry>
        </mxCell>
        <mxCell id="TSQBkJ3ogUV4XWMJtMO1-1" value="" style="rounded=0;whiteSpace=wrap;html=1;" vertex="1" parent="1">
          <mxGeometry x="1110" y="1706" width="500" height="180" as="geometry" />
        </mxCell>
        <mxCell id="TSQBkJ3ogUV4XWMJtMO1-2" value="&lt;span style=&quot;color: rgba(0, 0, 0, 0.85); font-family: Menlo, &amp;quot;Ubuntu Mono&amp;quot;, consolas, source-code-pro, monospace; font-size: 14px; text-align: start; white-space: pre; background-color: rgb(245, 245, 245);&quot;&gt;redis01&lt;/span&gt;&lt;div&gt;&lt;span style=&quot;color: rgba(0, 0, 0, 0.85); font-family: Menlo, &amp;quot;Ubuntu Mono&amp;quot;, consolas, source-code-pro, monospace; font-size: 14px; text-align: start; white-space: pre; background-color: rgb(245, 245, 245);&quot;&gt;master&lt;/span&gt;&lt;/div&gt;" style="shape=cylinder3;whiteSpace=wrap;html=1;boundedLbl=1;backgroundOutline=1;size=15;fillColor=#b1ddf0;strokeColor=#10739e;" vertex="1" parent="1">
          <mxGeometry x="1120" y="1741" width="60" height="80" as="geometry" />
        </mxCell>
        <mxCell id="TSQBkJ3ogUV4XWMJtMO1-3" value="&lt;span style=&quot;color: rgba(0, 0, 0, 0.85); font-family: Menlo, &amp;quot;Ubuntu Mono&amp;quot;, consolas, source-code-pro, monospace; font-size: 14px; text-align: start; white-space: pre; background-color: rgb(245, 245, 245);&quot;&gt;redis02&lt;/span&gt;&lt;div&gt;&lt;span style=&quot;color: rgba(0, 0, 0, 0.85); font-family: Menlo, &amp;quot;Ubuntu Mono&amp;quot;, consolas, source-code-pro, monospace; font-size: 14px; text-align: start; white-space: pre; background-color: rgb(245, 245, 245);&quot;&gt;master&lt;/span&gt;&lt;/div&gt;" style="shape=cylinder3;whiteSpace=wrap;html=1;boundedLbl=1;backgroundOutline=1;size=15;fillColor=#b1ddf0;strokeColor=#10739e;" vertex="1" parent="1">
          <mxGeometry x="1274" y="1741" width="60" height="80" as="geometry" />
        </mxCell>
        <mxCell id="TSQBkJ3ogUV4XWMJtMO1-4" value="&lt;span style=&quot;color: rgba(0, 0, 0, 0.85); font-family: Menlo, &amp;quot;Ubuntu Mono&amp;quot;, consolas, source-code-pro, monospace; font-size: 14px; text-align: start; white-space: pre; background-color: rgb(245, 245, 245);&quot;&gt;redis01&lt;/span&gt;&lt;div&gt;&lt;span style=&quot;color: rgba(0, 0, 0, 0.85); font-family: Menlo, &amp;quot;Ubuntu Mono&amp;quot;, consolas, source-code-pro, monospace; font-size: 14px; text-align: start; white-space: pre; background-color: rgb(245, 245, 245);&quot;&gt;slave&lt;/span&gt;&lt;/div&gt;" style="shape=cylinder3;whiteSpace=wrap;html=1;boundedLbl=1;backgroundOutline=1;size=15;fillColor=#f5f5f5;strokeColor=#666666;fontColor=#333333;" vertex="1" parent="1">
          <mxGeometry x="1200" y="1741" width="60" height="80" as="geometry" />
        </mxCell>
        <mxCell id="TSQBkJ3ogUV4XWMJtMO1-5" value="&lt;span style=&quot;color: rgba(0, 0, 0, 0.85); font-family: Menlo, &amp;quot;Ubuntu Mono&amp;quot;, consolas, source-code-pro, monospace; font-size: 14px; text-align: start; white-space: pre; background-color: rgb(245, 245, 245);&quot;&gt;redis02&lt;/span&gt;&lt;div&gt;&lt;span style=&quot;color: rgba(0, 0, 0, 0.85); font-family: Menlo, &amp;quot;Ubuntu Mono&amp;quot;, consolas, source-code-pro, monospace; font-size: 14px; text-align: start; white-space: pre; background-color: rgb(245, 245, 245);&quot;&gt;slave&lt;/span&gt;&lt;/div&gt;" style="shape=cylinder3;whiteSpace=wrap;html=1;boundedLbl=1;backgroundOutline=1;size=15;fillColor=#f5f5f5;strokeColor=#666666;fontColor=#333333;" vertex="1" parent="1">
          <mxGeometry x="1360.5" y="1741" width="60" height="80" as="geometry" />
        </mxCell>
        <mxCell id="TSQBkJ3ogUV4XWMJtMO1-6" value="&lt;span style=&quot;color: rgba(0, 0, 0, 0.85); font-family: Menlo, &amp;quot;Ubuntu Mono&amp;quot;, consolas, source-code-pro, monospace; font-size: 14px; text-align: start; white-space: pre; background-color: rgb(245, 245, 245);&quot;&gt;redis03&lt;/span&gt;&lt;div&gt;&lt;span style=&quot;color: rgba(0, 0, 0, 0.85); font-family: Menlo, &amp;quot;Ubuntu Mono&amp;quot;, consolas, source-code-pro, monospace; font-size: 14px; text-align: start; white-space: pre; background-color: rgb(245, 245, 245);&quot;&gt;slave&lt;/span&gt;&lt;/div&gt;" style="shape=cylinder3;whiteSpace=wrap;html=1;boundedLbl=1;backgroundOutline=1;size=15;fillColor=#f5f5f5;strokeColor=#666666;fontColor=#333333;" vertex="1" parent="1">
          <mxGeometry x="1525" y="1741" width="60" height="80" as="geometry" />
        </mxCell>
        <mxCell id="TSQBkJ3ogUV4XWMJtMO1-7" value="&lt;span style=&quot;color: rgba(0, 0, 0, 0.85); font-family: Menlo, &amp;quot;Ubuntu Mono&amp;quot;, consolas, source-code-pro, monospace; font-size: 14px; text-align: start; white-space: pre; background-color: rgb(245, 245, 245);&quot;&gt;redis03&lt;/span&gt;&lt;div&gt;&lt;span style=&quot;color: rgba(0, 0, 0, 0.85); font-family: Menlo, &amp;quot;Ubuntu Mono&amp;quot;, consolas, source-code-pro, monospace; font-size: 14px; text-align: start; white-space: pre; background-color: rgb(245, 245, 245);&quot;&gt;master&lt;/span&gt;&lt;/div&gt;" style="shape=cylinder3;whiteSpace=wrap;html=1;boundedLbl=1;backgroundOutline=1;size=15;fillColor=#b1ddf0;strokeColor=#10739e;" vertex="1" parent="1">
          <mxGeometry x="1440" y="1741" width="60" height="80" as="geometry" />
        </mxCell>
        <mxCell id="TSQBkJ3ogUV4XWMJtMO1-8" style="edgeStyle=orthogonalEdgeStyle;rounded=0;orthogonalLoop=1;jettySize=auto;html=1;exitX=0.5;exitY=1;exitDx=0;exitDy=0;exitPerimeter=0;entryX=0.5;entryY=1;entryDx=0;entryDy=0;entryPerimeter=0;startArrow=classic;startFill=1;" edge="1" parent="1" source="TSQBkJ3ogUV4XWMJtMO1-2" target="TSQBkJ3ogUV4XWMJtMO1-4">
          <mxGeometry relative="1" as="geometry" />
        </mxCell>
        <mxCell id="TSQBkJ3ogUV4XWMJtMO1-15" value="Replica" style="edgeLabel;html=1;align=center;verticalAlign=middle;resizable=0;points=[];" vertex="1" connectable="0" parent="TSQBkJ3ogUV4XWMJtMO1-8">
          <mxGeometry x="-0.1222" y="-1" relative="1" as="geometry">
            <mxPoint as="offset" />
          </mxGeometry>
        </mxCell>
        <mxCell id="TSQBkJ3ogUV4XWMJtMO1-9" style="edgeStyle=orthogonalEdgeStyle;rounded=0;orthogonalLoop=1;jettySize=auto;html=1;exitX=0.5;exitY=1;exitDx=0;exitDy=0;exitPerimeter=0;entryX=0.5;entryY=1;entryDx=0;entryDy=0;entryPerimeter=0;startArrow=classic;startFill=1;" edge="1" parent="1" source="TSQBkJ3ogUV4XWMJtMO1-3" target="TSQBkJ3ogUV4XWMJtMO1-5">
          <mxGeometry relative="1" as="geometry" />
        </mxCell>
        <mxCell id="TSQBkJ3ogUV4XWMJtMO1-16" value="Replica" style="edgeLabel;html=1;align=center;verticalAlign=middle;resizable=0;points=[];" vertex="1" connectable="0" parent="TSQBkJ3ogUV4XWMJtMO1-9">
          <mxGeometry x="-0.3412" y="3" relative="1" as="geometry">
            <mxPoint as="offset" />
          </mxGeometry>
        </mxCell>
        <mxCell id="TSQBkJ3ogUV4XWMJtMO1-10" style="edgeStyle=orthogonalEdgeStyle;rounded=0;orthogonalLoop=1;jettySize=auto;html=1;exitX=0.5;exitY=1;exitDx=0;exitDy=0;exitPerimeter=0;entryX=0.5;entryY=1;entryDx=0;entryDy=0;entryPerimeter=0;startArrow=classic;startFill=1;" edge="1" parent="1" source="TSQBkJ3ogUV4XWMJtMO1-7" target="TSQBkJ3ogUV4XWMJtMO1-6">
          <mxGeometry relative="1" as="geometry" />
        </mxCell>
        <mxCell id="TSQBkJ3ogUV4XWMJtMO1-17" value="Replica" style="edgeLabel;html=1;align=center;verticalAlign=middle;resizable=0;points=[];" vertex="1" connectable="0" parent="TSQBkJ3ogUV4XWMJtMO1-10">
          <mxGeometry x="-0.3493" y="-1" relative="1" as="geometry">
            <mxPoint as="offset" />
          </mxGeometry>
        </mxCell>
        <mxCell id="TSQBkJ3ogUV4XWMJtMO1-11" value="Redis" style="text;html=1;align=center;verticalAlign=middle;whiteSpace=wrap;rounded=0;" vertex="1" parent="1">
          <mxGeometry x="1120" y="1711" width="60" height="30" as="geometry" />
        </mxCell>
        <mxCell id="TSQBkJ3ogUV4XWMJtMO1-14" style="edgeStyle=orthogonalEdgeStyle;rounded=0;orthogonalLoop=1;jettySize=auto;html=1;exitX=0.5;exitY=1;exitDx=0;exitDy=0;entryX=0.5;entryY=0;entryDx=0;entryDy=0;fillColor=#1ba1e2;strokeColor=#006EAF;" edge="1" parent="1" source="TSQBkJ3ogUV4XWMJtMO1-12" target="TSQBkJ3ogUV4XWMJtMO1-1">
          <mxGeometry relative="1" as="geometry">
            <Array as="points">
              <mxPoint x="1110" y="1650" />
              <mxPoint x="1360" y="1650" />
            </Array>
          </mxGeometry>
        </mxCell>
        <mxCell id="TSQBkJ3ogUV4XWMJtMO1-12" value="pymongo-api" style="rounded=1;whiteSpace=wrap;html=1;" vertex="1" parent="1">
          <mxGeometry x="1050" y="1560" width="120" height="60" as="geometry" />
        </mxCell>
      </root>
    </mxGraphModel>
  </diagram>
</mxfile>
